# xmcd
#
# Track frame offsets:
#	150
#	16347
#	32113
#	44010
#	63363
#	81099
#	101753
#	123121
#	149618
#	169560
#	194440
#	209563
#	221750
#	234816
#	250385
#	266719
#
# Disc length: 3776 seconds
#
# Revision: 2
# Processed by: cddbd v1.5.2PL0 Copyright (c) Steve Scherf et al.
# Submitted via: audiograbber 1.83.01
#
DISCID=ec0ebe10
DTITLE=Charlie Landsborough - Silhouette
DYEAR=2013
DGENRE=Country
TTITLE0=A Very Fine Line
TTITLE1=Never Going Back
TTITLE2=Cold, Cold Heart
TTITLE3=Rivers And Streams
TTITLE4=Fog On The Brain
TTITLE5=I Could Never Stop You Loving Me
TTITLE6=City Of New Orleans
TTITLE7='Til I Gain Control Again
TTITLE8=The Fool In The Mirror
TTITLE9=Is That You?
TTITLE10=Starting At The Bottom
TTITLE11=Blue Eyes Crying In The Rain
TTITLE12=Spanish Pipedream (Blow Up Your TV)
TTITLE13=More Honest Than Sweet
TTITLE14=Windin' Down
TTITLE15=Another Dream Of You
EXTD=
EXTT0=
EXTT1=
EXTT2=
EXTT3=
EXTT4=
EXTT5=
EXTT6=
EXTT7=
EXTT8=
EXTT9=
EXTT10=
EXTT11=
EXTT12=
EXTT13=
EXTT14=
EXTT15=
PLAYORDER=
